<?xml version="1.0" encoding="UTF-8"?>
<svg id="Layer_2" data-name="Layer 2" xmlns="http://www.w3.org/2000/svg" viewBox="0 0 78.48 80.43">
  <defs>
    <style>
      .cls-1 {
        fill: #1d242b;
      }

      .cls-1, .cls-2 {
        stroke: #1d252c;
        stroke-miterlimit: 10;
      }

      .cls-2 {
        fill: #d8b6a7;
        stroke-width: 5px;
      }

      .cls-3 {
        fill: #fff;
        stroke-width: 0px;
      }
    </style>
  </defs>
  <g id="Layer_1-2" data-name="Layer 1">
    <g>
      <rect class="cls-1" x=".5" y="7.6" width="77.48" height="72.33" rx="11.85" ry="11.85"/>
      <rect class="cls-2" x="2.89" y="2.5" width="72.33" height="72.33" rx="11.85" ry="11.85"/>
      <g>
        <path class="cls-3" d="M28.4,31v4.86l-12.35,4.48,12.35,4.43v4.86l-17.62-6.86v-4.81l17.62-6.95Z"/>
        <path class="cls-3" d="M67.34,37.95v4.81s-17.62,6.86-17.62,6.86v-4.86s12.35-4.43,12.35-4.43l-12.35-4.48v-4.86s17.62,6.95,17.62,6.95Z"/>
        <path class="cls-3" d="M46.93,27.69l-6.79,24.21c-.43,1.54-1.01,3-1.73,4.37-.72,1.37-1.53,2.55-2.43,3.56-.9,1-1.85,1.75-2.86,2.25l-1.55-3.98c1.05-1.11,1.89-2.24,2.51-3.4.63-1.16,1.16-2.5,1.59-4.05l6.79-24.21,4.46,1.25ZM48.85,15.86c.86.24,1.08,1.12.66,2.62l-.78,2.78c-.43,1.54-1.08,2.19-1.94,1.95l-1.96-.55c-.86-.24-1.08-1.13-.65-2.67l.78-2.78c.42-1.51,1.07-2.14,1.93-1.9l1.96.55Z"/>
      </g>
    </g>
  </g>
</svg>